<?xml version="1.0" encoding="utf-8"?>
<!-- Generator: Adobe Illustrator 23.0.6, SVG Export Plug-In . SVG Version: 6.00 Build 0)  -->
<svg version="1.0" id="Layer_1" xmlns="http://www.w3.org/2000/svg" xmlns:xlink="http://www.w3.org/1999/xlink" x="0px" y="0px"
	 viewBox="0 0 300 229" style="enable-background:new 0 0 300 229;" xml:space="preserve">
<style type="text/css">
	.st0{fill:#14B0E6;}
	.st1{fill:#FFFFFF;}
</style>
<rect class="st0" width="300" height="147.69"/>
<g>
	<g>
		<polygon class="st1" points="271.78,42.25 271.78,23.51 217.17,23.51 202.29,67.72 202.29,124.18 271.64,124.18 271.64,105.51 
			226.56,105.51 226.56,81.45 264.73,81.45 264.73,63.47 226.56,63.47 226.56,42.25 		"/>
	</g>
	<path class="st1" d="M165.6,96.8l20.05-73.29h27.1l-33.88,100.67h-26.55l-33.6-100.67h26.9L165.6,96.8z"/>
	<polygon class="st1" points="114.31,23.51 100.34,23.51 100.34,124.18 124.54,124.18 124.54,54.15 	"/>
	<g>
		<polygon class="st1" points="52.49,105.51 52.49,23.51 28.22,23.51 28.22,124.18 96.31,124.18 96.31,105.51 		"/>
	</g>
</g>
<g>
	<path class="st0" d="M84.96,198.37H56.81v24.56h32.37v4.3H51.72v-60.2h37.25v4.3H56.81v22.74h28.16V198.37z"/>
	<path class="st0" d="M144.71,227.23h-5.09l-34.61-51.52v51.52h-5.13v-60.2h5.13l34.65,51.56v-51.56h5.04V227.23z"/>
	<path class="st0" d="M199.65,171.33h-20.63v55.9h-5.09v-55.9h-20.59v-4.3h46.31V171.33z"/>
	<path class="st0" d="M242.61,198.37h-28.16v24.56h32.37v4.3h-37.46v-60.2h37.25v4.3h-32.17v22.74h28.16V198.37z"/>
	<path class="st0" d="M280.03,202.13h-17.49v25.1h-5.13v-60.2h19.56c6.42,0,11.44,1.56,15.05,4.67c3.61,3.11,5.42,7.46,5.42,13.05
		c0,3.85-1.13,7.25-3.39,10.2c-2.26,2.95-5.29,4.98-9.1,6.11L300,226.69v0.54h-5.42L280.03,202.13z M262.54,197.83h15.59
		c4.27,0,7.7-1.21,10.29-3.64c2.59-2.43,3.89-5.58,3.89-9.44c0-4.25-1.35-7.55-4.05-9.9c-2.7-2.35-6.49-3.52-11.37-3.52h-14.35
		V197.83z"/>
	<g>
		<path class="st0" d="M25.72,228.2H13.54c-4.19,0-7.49-1.22-9.91-3.67C1.21,222.07,0,218.72,0,214.47v-34.72
			c0-4.26,1.21-7.61,3.63-10.06c2.42-2.45,5.72-3.67,9.91-3.67h12.18c4.19,0,7.49,1.23,9.91,3.67c2.42,2.45,3.63,5.8,3.63,10.06
			v4.74c0,0.77-0.36,1.16-1.06,1.16h-2.71c-0.71,0-1.06-0.39-1.06-1.16v-4.55c0-3.09-0.79-5.46-2.37-7.11
			c-1.58-1.64-3.85-2.47-6.82-2.47H13.93c-2.97,0-5.22,0.84-6.77,2.51c-1.55,1.68-2.32,4.03-2.32,7.06v34.33
			c0,3.03,0.77,5.38,2.32,7.06c1.55,1.68,3.8,2.51,6.77,2.51h11.31c2.97,0,5.24-0.82,6.82-2.47c1.58-1.64,2.37-4.01,2.37-7.11v-4.55
			c0-0.77,0.35-1.16,1.06-1.16h2.71c0.71,0,1.06,0.39,1.06,1.16v4.74c0,4.25-1.21,7.61-3.63,10.06
			C33.22,226.98,29.91,228.2,25.72,228.2z"/>
	</g>
</g>
</svg>
