<?xml version="1.0" encoding="utf-8"?>
<!-- Generator: Adobe Illustrator 23.0.3, SVG Export Plug-In . SVG Version: 6.00 Build 0)  -->
<svg version="1.1" id="Layer_1" xmlns="http://www.w3.org/2000/svg" xmlns:xlink="http://www.w3.org/1999/xlink" x="0px" y="0px"
	 viewBox="0 0 73 55" style="enable-background:new 0 0 73 55;" xml:space="preserve">
<style type="text/css">
	.st0{fill:#EBEAEA;}
	.st1{fill:#FFFFFF;}
	.st2{fill:#C6C6C6;}
	.st3{fill:#AFAFAF;}
	.st4{fill:#EDEDED;}
	.st5{fill:#E5E5E4;}
	.st6{fill:#D1D1D1;}
	.st7{fill:#647A80;}
</style>
<g>
	<rect class="st0" width="73" height="55"/>
	<g>
		<rect x="3" y="3.3" class="st1" width="66.9" height="48.4"/>
		<rect x="13.3" y="16.6" class="st2" width="46.5" height="1.6"/>
		<rect x="6.3" y="19.6" class="st2" width="60.3" height="1.6"/>
		<rect x="6.3" y="22.5" class="st2" width="60.3" height="1.6"/>
		<rect x="19.7" y="8" class="st3" width="33.6" height="1.8"/>
		<rect x="6.4" y="37.3" class="st4" width="60.3" height="4"/>
		<rect x="6.4" y="32" class="st4" width="60.3" height="4"/>
		<rect x="57" y="28.5" class="st5" width="9.7" height="1.2"/>
		<rect x="6.4" y="28.5" class="st5" width="11.5" height="1.2"/>
		<rect x="19" y="28.5" class="st5" width="7.5" height="1.2"/>
		<rect x="28.2" y="11" class="st6" width="16.9" height="1.2"/>
	</g>
	<path class="st7" d="M64.7,48.7H8.4c-1.1,0-2-0.9-2-2V46c0-1.1,0.9-2,2-2h56.3c1.1,0,2,0.9,2,2v0.7C66.7,47.8,65.8,48.7,64.7,48.7z
		"/>
</g>
</svg>
