<?xml version="1.0" encoding="utf-8"?>
<!-- Generator: Adobe Illustrator 23.0.3, SVG Export Plug-In . SVG Version: 6.00 Build 0)  -->
<svg version="1.1" id="Layer_1" xmlns="http://www.w3.org/2000/svg" xmlns:xlink="http://www.w3.org/1999/xlink" x="0px" y="0px"
	 viewBox="0 0 73 55" style="enable-background:new 0 0 73 55;" xml:space="preserve">
<style type="text/css">
	.st0{fill:#252525;}
	.st1{fill:#333333;}
	.st2{fill:#DDDDDD;}
	.st3{fill:#89969D;}
	.st4{fill:#565656;}
	.st5{fill:#8D8D8D;}
</style>
<g>
	<rect class="st0" width="73" height="55"/>
	<g>
		<rect x="2.9" y="2.9" class="st1" width="67.3" height="49"/>
		<rect x="6.2" y="16.2" class="st2" width="60.7" height="1.6"/>
		<rect x="6.2" y="19.6" class="st2" width="60.7" height="1.6"/>
		<rect x="6.2" y="22.9" class="st2" width="60.7" height="1.6"/>
		<rect x="6.2" y="11.5" class="st2" width="29.9" height="1.6"/>
		<rect x="6.5" y="28" class="st3" width="11.5" height="1.7"/>
		<g>
			<path class="st4" d="M64.9,35.9H7.4c-0.9,0-1.6-0.8-1.6-1.8v-0.8c0-1,0.7-1.8,1.6-1.8h57.5c0.9,0,1.6,0.8,1.6,1.8V34
				C66.5,35,65.8,35.9,64.9,35.9z"/>
		</g>
		<g>
			<path class="st4" d="M64.9,41.8H7.4c-0.9,0-1.6-0.8-1.6-1.8v-0.8c0-1,0.7-1.8,1.6-1.8h57.5c0.9,0,1.6,0.8,1.6,1.8v0.8
				C66.5,40.9,65.8,41.8,64.9,41.8z"/>
		</g>
		<g>
			<rect x="9.2" y="6.1" class="st5" width="9.7" height="1.1"/>
			<ellipse class="st5" cx="6.9" cy="6.6" rx="0.6" ry="0.7"/>
		</g>
		<rect x="46.5" y="6.1" class="st5" width="20.4" height="1.1"/>
	</g>
	<path class="st3" d="M31.8,48.9H7.9c-1,0-1.9-0.8-1.9-1.9v-0.7c0-1,0.8-1.9,1.9-1.9h23.9c1,0,1.9,0.8,1.9,1.9V47
		C33.7,48.1,32.9,48.9,31.8,48.9z"/>
</g>
</svg>
