<?xml version="1.0" encoding="utf-8"?>
<!-- Generator: Adobe Illustrator 23.0.3, SVG Export Plug-In . SVG Version: 6.00 Build 0)  -->
<svg version="1.1" id="Layer_1" xmlns="http://www.w3.org/2000/svg" xmlns:xlink="http://www.w3.org/1999/xlink" x="0px" y="0px"
	 viewBox="0 0 73 55" style="enable-background:new 0 0 73 55;" xml:space="preserve">
<style type="text/css">
	.st0{fill:#EBEAEA;}
	.st1{fill:#FFFFFF;}
	.st2{fill:#E5E5E4;}
	.st3{fill:#6200EE;}
	.st4{fill:#EDEDED;}
</style>
<g>
	<rect class="st0" width="73" height="55"/>
	<g>
		<rect x="2.9" y="3" class="st1" width="67.6" height="49"/>
		<rect x="6.3" y="16.3" class="st2" width="60.9" height="1.6"/>
		<rect x="6.3" y="19.6" class="st2" width="60.9" height="1.6"/>
		<rect x="2.9" y="3" class="st3" width="67.5" height="5.3"/>
		<rect x="6.3" y="23" class="st2" width="60.9" height="1.6"/>
		<rect x="6.3" y="11.3" class="st2" width="30.1" height="1.6"/>
		<rect x="6.6" y="27.4" class="st3" width="11" height="1.6"/>
		<g>
			<path class="st4" d="M65.3,35.4H8.1c-1,0-1.9-0.9-1.9-1.9v-0.2c0-1.1,0.9-1.9,1.9-1.9h57.2c1,0,1.9,0.9,1.9,1.9v0.2
				C67.2,34.5,66.3,35.4,65.3,35.4z"/>
		</g>
		<g>
			<path class="st4" d="M65.3,40.8H8.1c-1,0-1.9-0.9-1.9-1.9v-0.2c0-1.1,0.9-1.9,1.9-1.9h57.2c1,0,1.9,0.9,1.9,1.9v0.2
				C67.2,39.9,66.3,40.8,65.3,40.8z"/>
		</g>
		<g>
			<rect x="9.2" y="5.1" class="st1" width="9.8" height="1.1"/>
			<ellipse class="st1" cx="6.9" cy="5.6" rx="0.6" ry="0.7"/>
		</g>
		<rect x="46.8" y="5.1" class="st1" width="20.4" height="1.1"/>
	</g>
	<path class="st3" d="M29.1,48.2H8.2c-1.1,0-2-0.9-2-2v-0.9c0-1.1,0.9-2,2-2h20.9c1.1,0,2,0.9,2,2v0.9C31,47.3,30.2,48.2,29.1,48.2z
		"/>
</g>
</svg>
