<?xml version="1.0" encoding="utf-8"?>
<!-- Generator: Adobe Illustrator 23.0.6, SVG Export Plug-In . SVG Version: 6.00 Build 0)  -->
<svg version="1.1" id="Layer_1" xmlns="http://www.w3.org/2000/svg" xmlns:xlink="http://www.w3.org/1999/xlink" x="0px" y="0px"
	 viewBox="0 0 73 55" style="enable-background:new 0 0 73 55;" xml:space="preserve">
<style type="text/css">
	.st0{fill:#F2F2F2;}
	.st1{fill:#FFFFFF;}
	.st2{fill:#D7D7D7;}
	.st3{fill:#737373;}
	.st4{fill:#DC4D27;}
	.st5{fill:#9B9B9B;}
	.st6{fill:#EAEAEA;}
</style>
<g>
	<g>
		<g>
			<rect class="st0" width="73" height="55"/>
		</g>
		<g>
			<rect x="3.1" y="14.4" class="st1" width="66.8" height="36.9"/>
		</g>
		<g>
			<rect x="6" y="13.6" class="st2" width="0.7" height="41.4"/>
		</g>
		<ellipse class="st2" cx="6.3" cy="20.8" rx="1.4" ry="1.4"/>
		<g>
			<rect x="6" y="12.1" class="st2" width="0.7" height="0.9"/>
		</g>
		<g>
			<rect x="6" y="10.6" class="st2" width="0.7" height="0.9"/>
		</g>
		<g>
			<rect x="6" y="9.1" class="st2" width="0.7" height="0.9"/>
		</g>
		<rect x="26.3" y="3.7" class="st3" width="8.5" height="5.3"/>
		<rect x="38.2" y="3.7" class="st3" width="8.5" height="5.3"/>
		<rect x="33.4" y="10.3" class="st4" width="6.3" height="1.2"/>
		<g>
			<rect x="11.1" y="16.8" class="st2" width="10.2" height="1.1"/>
		</g>
		<g>
			<rect x="11.1" y="20.6" class="st5" width="22.4" height="1.5"/>
		</g>
		<g>
			<rect x="11.1" y="23.9" class="st6" width="39.5" height="1.2"/>
		</g>
		<g>
			<rect x="11.1" y="26.5" class="st6" width="39.5" height="1.2"/>
		</g>
		<g>
			<rect x="11.1" y="29.1" class="st6" width="39.5" height="10.4"/>
		</g>
		<g>
			<rect x="11.1" y="41.4" class="st6" width="39.5" height="3.2"/>
		</g>
	</g>
	<g>
		<path d="M66.6,25.7c0,3.2-2.6,5.9-5.7,5.8c-3.1,0-5.7-2.6-5.6-5.9c0-3.2,2.6-5.8,5.6-5.8C64,19.9,66.6,22.5,66.6,25.7z M59.2,21.3
			c0.1-0.2,0.2-0.4,0.3-0.6c-1.2,0.4-2.2,1.1-2.9,2.2c0.3,0,0.5-0.1,0.7-0.1c0,0.2,0,0.4,0,0.7c0.1,0.5,0,1.2,0.8,1.4
			c-0.5-0.2-0.9,0-1.2,0.5c-0.1,0.2-0.3,0.3-0.5,0.5c-0.1,0.1,0,0.3-0.1,0.5c-0.2-0.2-0.4-0.5-0.6-0.8c-0.1,1.2,0.4,2.8,1.1,3.3
			c0-0.2,0-0.5,0-0.7c0.6,0.5,1.3,0.5,2,0.3c0,0.7,0.7,1.8,1.2,1.8c0.6,0,1.4,0.1,1.9-0.2c0.4-0.3,0.5-1,0.8-1.6
			c0.6,0,1.1,0,1.7-0.1c0.2,0,0.3-0.5,0.5-0.7c-0.1,0.4-0.1,0.8-0.2,1.4c0.9-0.9,1.4-2.5,1.1-3.5c-0.2,0.5-0.4,0.9-0.6,1.3
			c0-0.4,0.2-0.9-0.3-1.2c-0.4-0.2-0.7-0.5-1-0.8c0.2-0.6,0.3-1.3,0.5-1.9c0.2,0,0.4,0.1,0.7,0.1c-0.7-1.1-1.6-1.8-2.9-2.2
			c0.2,0.3,0.3,0.5,0.4,0.7c-0.5,0.2-1,0.4-1.4,0.7c-0.1,0.1-0.2,0.2-0.2,0.3c0,0.7-0.2,1.4,0.7,1.8c0.3,0.1,0.5,0.4,0.8,0.6
			c0.2,0.1,0.5,0.2,0.8,0.3c-0.2,0.2-0.4,0.4-0.5,0.6c-0.2,0.4-0.3,0.9-0.4,1.4c-0.1,0.3,0,0.5,0,0.8c-0.2-0.1-0.5-0.2-0.7-0.3
			c-0.5,0-1,0-1.5,0c-0.2,0-0.4,0.2-0.7,0.3c0-0.3,0.1-0.5,0-0.8c-0.1-0.4-0.2-0.9-0.4-1.3c-0.1-0.3-0.3-0.5-0.5-0.7
			c1,0,1.5-0.9,2.2-1.4c0,0,0-0.2,0-0.2c0.1-1.1,0.1-1.2-0.9-1.7C59.7,21.6,59.5,21.5,59.2,21.3z M59.3,30.6c1.1,0.4,2.1,0.5,3.2,0
			C61.4,30.3,60.4,30.4,59.3,30.6z"/>
	</g>
</g>
</svg>
